<?xml version="1.0" encoding="UTF-8" standalone="no"?>
<!DOCTYPE svg PUBLIC "-//W3C//DTD SVG 1.1//EN" "http://www.w3.org/Graphics/SVG/1.1/DTD/svg11.dtd">
<!-- Generated by graphviz version 2.40.1 (20161225.0304)
 -->
<!-- Title: %0 Pages: 1 -->
<svg width="2136pt" height="740pt" viewBox="0.00 0.00 2135.75 740.00" xmlns="http://www.w3.org/2000/svg" xmlns:xlink="http://www.w3.org/1999/xlink">
<g id="graph0" class="graph" transform="scale(1 1) rotate(0) translate(4 736)">
<title>%0</title>
<polygon fill="#ffffff" stroke="transparent" points="-4,4 -4,-736 2131.7456,-736 2131.7456,4 -4,4"/>
<!-- 0.0 -->
<g id="node1" class="node">
<title>0.0</title>
<polygon fill="#a0ffa0" stroke="#000000" points="1193.563,-.5 1193.563,-223.7 1857.7456,-223.7 1857.7456,-.5 1193.563,-.5"/>
<text text-anchor="middle" x="1239.4694" y="-107.9" font-family="Times,serif" font-size="14.00" fill="#000000">Attachment 0</text>
<polyline fill="none" stroke="#000000" points="1285.3758,-.5 1285.3758,-223.7 "/>
<text text-anchor="middle" x="1571.5607" y="-207.1" font-family="Times,serif" font-size="14.00" fill="#000000">flags=</text>
<polyline fill="none" stroke="#000000" points="1285.3758,-198.9 1857.7456,-198.9 "/>
<text text-anchor="middle" x="1571.5607" y="-182.3" font-family="Times,serif" font-size="14.00" fill="#000000">format=VK_FORMAT_B8G8R8A8_SRGB</text>
<polyline fill="none" stroke="#000000" points="1285.3758,-174.1 1857.7456,-174.1 "/>
<text text-anchor="middle" x="1571.5607" y="-157.5" font-family="Times,serif" font-size="14.00" fill="#000000">samples=VK_SAMPLE_COUNT_1_BIT+VK_SAMPLE_COUNT_FLAG_BITS_MAX_ENUM+</text>
<polyline fill="none" stroke="#000000" points="1285.3758,-149.3 1857.7456,-149.3 "/>
<text text-anchor="middle" x="1571.5607" y="-132.7" font-family="Times,serif" font-size="14.00" fill="#000000">loadOp=VK_ATTACHMENT_LOAD_OP_CLEAR</text>
<polyline fill="none" stroke="#000000" points="1285.3758,-124.5 1857.7456,-124.5 "/>
<text text-anchor="middle" x="1571.5607" y="-107.9" font-family="Times,serif" font-size="14.00" fill="#000000">storeOp=VK_ATTACHMENT_STORE_OP_STORE</text>
<polyline fill="none" stroke="#000000" points="1285.3758,-99.7 1857.7456,-99.7 "/>
<text text-anchor="middle" x="1571.5607" y="-83.1" font-family="Times,serif" font-size="14.00" fill="#000000">stencilLoadOp=VK_ATTACHMENT_LOAD_OP_DONT_CARE</text>
<polyline fill="none" stroke="#000000" points="1285.3758,-74.9 1857.7456,-74.9 "/>
<text text-anchor="middle" x="1571.5607" y="-58.3" font-family="Times,serif" font-size="14.00" fill="#000000">stencilStoreOp=VK_ATTACHMENT_STORE_OP_DONT_CARE</text>
<polyline fill="none" stroke="#000000" points="1285.3758,-50.1 1857.7456,-50.1 "/>
<text text-anchor="middle" x="1571.5607" y="-33.5" font-family="Times,serif" font-size="14.00" fill="#000000">initialLayout=VK_IMAGE_LAYOUT_UNDEFINED</text>
<polyline fill="none" stroke="#000000" points="1285.3758,-25.3 1857.7456,-25.3 "/>
<text text-anchor="middle" x="1571.5607" y="-8.7" font-family="Times,serif" font-size="14.00" fill="#000000">finalLayout=VK_IMAGE_LAYOUT_PRESENT_SRC_KHR</text>
</g>
<!-- 0.1 -->
<g id="node2" class="node">
<title>0.1</title>
<polygon fill="#a0ffa0" stroke="#000000" points="1463.563,-260.7 1463.563,-483.9 2127.7456,-483.9 2127.7456,-260.7 1463.563,-260.7"/>
<text text-anchor="middle" x="1509.4694" y="-368.1" font-family="Times,serif" font-size="14.00" fill="#000000">Attachment 1</text>
<polyline fill="none" stroke="#000000" points="1555.3758,-260.7 1555.3758,-483.9 "/>
<text text-anchor="middle" x="1841.5607" y="-467.3" font-family="Times,serif" font-size="14.00" fill="#000000">flags=</text>
<polyline fill="none" stroke="#000000" points="1555.3758,-459.1 2127.7456,-459.1 "/>
<text text-anchor="middle" x="1841.5607" y="-442.5" font-family="Times,serif" font-size="14.00" fill="#000000">format=VK_FORMAT_D32_SFLOAT</text>
<polyline fill="none" stroke="#000000" points="1555.3758,-434.3 2127.7456,-434.3 "/>
<text text-anchor="middle" x="1841.5607" y="-417.7" font-family="Times,serif" font-size="14.00" fill="#000000">samples=VK_SAMPLE_COUNT_1_BIT+VK_SAMPLE_COUNT_FLAG_BITS_MAX_ENUM+</text>
<polyline fill="none" stroke="#000000" points="1555.3758,-409.5 2127.7456,-409.5 "/>
<text text-anchor="middle" x="1841.5607" y="-392.9" font-family="Times,serif" font-size="14.00" fill="#000000">loadOp=VK_ATTACHMENT_LOAD_OP_CLEAR</text>
<polyline fill="none" stroke="#000000" points="1555.3758,-384.7 2127.7456,-384.7 "/>
<text text-anchor="middle" x="1841.5607" y="-368.1" font-family="Times,serif" font-size="14.00" fill="#000000">storeOp=VK_ATTACHMENT_STORE_OP_DONT_CARE</text>
<polyline fill="none" stroke="#000000" points="1555.3758,-359.9 2127.7456,-359.9 "/>
<text text-anchor="middle" x="1841.5607" y="-343.3" font-family="Times,serif" font-size="14.00" fill="#000000">stencilLoadOp=VK_ATTACHMENT_LOAD_OP_DONT_CARE</text>
<polyline fill="none" stroke="#000000" points="1555.3758,-335.1 2127.7456,-335.1 "/>
<text text-anchor="middle" x="1841.5607" y="-318.5" font-family="Times,serif" font-size="14.00" fill="#000000">stencilStoreOp=VK_ATTACHMENT_STORE_OP_DONT_CARE</text>
<polyline fill="none" stroke="#000000" points="1555.3758,-310.3 2127.7456,-310.3 "/>
<text text-anchor="middle" x="1841.5607" y="-293.7" font-family="Times,serif" font-size="14.00" fill="#000000">initialLayout=VK_IMAGE_LAYOUT_UNDEFINED</text>
<polyline fill="none" stroke="#000000" points="1555.3758,-285.5 2127.7456,-285.5 "/>
<text text-anchor="middle" x="1841.5607" y="-268.9" font-family="Times,serif" font-size="14.00" fill="#000000">finalLayout=VK_IMAGE_LAYOUT_DEPTH_STENCIL_ATTACHMENT_OPTIMAL</text>
</g>
<!-- 0.1&#45;&gt;0.0 -->
<!-- 0.2 -->
<g id="node3" class="node">
<title>0.2</title>
<polygon fill="#000000" stroke="#000000" points="378.7357,-390.3 296.5728,-390.3 296.5728,-354.3 378.7357,-354.3 378.7357,-390.3"/>
<text text-anchor="middle" x="337.6543" y="-368.1" font-family="Times,serif" font-size="14.00" fill="#ffffff">ExternalSrc</text>
</g>
<!-- 0.3 -->
<g id="node4" class="node">
<title>0.3</title>
<polygon fill="#000000" stroke="#000000" points="1324.0198,-724.7 1241.2888,-724.7 1241.2888,-688.7 1324.0198,-688.7 1324.0198,-724.7"/>
<text text-anchor="middle" x="1282.6543" y="-702.5" font-family="Times,serif" font-size="14.00" fill="#ffffff">ExternalDst</text>
</g>
<!-- 0.4 -->
<g id="node5" class="node">
<title>0.4</title>
<polygon fill="#a0a0ff" stroke="#000000" points="771.8167,-681.9 771.8167,-731.5 1223.4919,-731.5 1223.4919,-681.9 771.8167,-681.9"/>
<text text-anchor="middle" x="808.0099" y="-702.5" font-family="Times,serif" font-size="14.00" fill="#000000">Subpass 0</text>
<polyline fill="none" stroke="#000000" points="844.2031,-681.9 844.2031,-731.5 "/>
<text text-anchor="middle" x="1033.8475" y="-714.9" font-family="Times,serif" font-size="14.00" fill="#000000">flags=</text>
<polyline fill="none" stroke="#000000" points="844.2031,-706.7 1223.4919,-706.7 "/>
<text text-anchor="middle" x="1033.8475" y="-690.1" font-family="Times,serif" font-size="14.00" fill="#000000">pipelineBindPoint=VK_PIPELINE_BIND_POINT_GRAPHICS</text>
</g>
<!-- 0.4&#45;&gt;0.2 -->
<!-- 0.5 -->
<g id="node6" class="node">
<title>0.5</title>
<polygon fill="none" stroke="#000000" points="1445.8334,-390.3 1065.4751,-390.3 1065.4751,-354.3 1445.8334,-354.3 1445.8334,-390.3"/>
<text text-anchor="middle" x="1255.6543" y="-368.1" font-family="Times,serif" font-size="14.00" fill="#000000">VK_IMAGE_LAYOUT_COLOR_ATTACHMENT_OPTIMAL</text>
</g>
<!-- 0.4&#45;&gt;0.5 -->
<g id="edge2" class="edge">
<title>0.4-&gt;0.5</title>
<path fill="none" stroke="#000000" d="M1223.7217,-682.4268C1263.4157,-673.5835 1296.3277,-661.5997 1309.6543,-645.4 1369.5922,-572.5399 1306.7233,-452.002 1273.4839,-398.8619"/>
<polygon fill="#000000" stroke="#000000" points="1276.3734,-396.8835 1268.0421,-390.3382 1270.4733,-400.6504 1276.3734,-396.8835"/>
</g>
<!-- 0.6 -->
<g id="node7" class="node">
<title>0.6</title>
<polygon fill="none" stroke="#000000" points="1944.0395,-600.9 1501.2691,-600.9 1501.2691,-564.9 1944.0395,-564.9 1944.0395,-600.9"/>
<text text-anchor="middle" x="1722.6543" y="-578.7" font-family="Times,serif" font-size="14.00" fill="#000000">VK_IMAGE_LAYOUT_DEPTH_STENCIL_ATTACHMENT_OPTIMAL</text>
</g>
<!-- 0.4&#45;&gt;0.6 -->
<g id="edge4" class="edge">
<title>0.4-&gt;0.6</title>
<path fill="none" stroke="#000000" d="M1143.0613,-681.8705C1279.5979,-658.5557 1481.1877,-624.1325 1607.0705,-602.6369"/>
<polygon fill="#000000" stroke="#000000" points="1607.8602,-606.0528 1617.1284,-600.9195 1606.6819,-599.1527 1607.8602,-606.0528"/>
</g>
<!-- 0.7 -->
<g id="node8" class="node">
<title>0.7</title>
<polygon fill="none" stroke="#000000" points="34.7744,-520.9 34.7744,-644.9 1300.5342,-644.9 1300.5342,-520.9 34.7744,-520.9"/>
<text text-anchor="middle" x="77.7569" y="-578.7" font-family="Times,serif" font-size="14.00" fill="#000000">Dependency</text>
<polyline fill="none" stroke="#000000" points="120.7394,-520.9 120.7394,-644.9 "/>
<text text-anchor="middle" x="710.6368" y="-628.3" font-family="Times,serif" font-size="14.00" fill="#000000">srcStageMask=VK_PIPELINE_STAGE_EARLY_FRAGMENT_TESTS_BIT+VK_PIPELINE_STAGE_COLOR_ATTACHMENT_OUTPUT_BIT+VK_PIPELINE_STAGE_FLAG_BITS_MAX_ENUM+</text>
<polyline fill="none" stroke="#000000" points="120.7394,-620.1 1300.5342,-620.1 "/>
<text text-anchor="middle" x="710.6368" y="-603.5" font-family="Times,serif" font-size="14.00" fill="#000000">srcAccessMask=</text>
<polyline fill="none" stroke="#000000" points="120.7394,-595.3 1300.5342,-595.3 "/>
<text text-anchor="middle" x="710.6368" y="-578.7" font-family="Times,serif" font-size="14.00" fill="#000000">dstStageMask=VK_PIPELINE_STAGE_EARLY_FRAGMENT_TESTS_BIT+VK_PIPELINE_STAGE_COLOR_ATTACHMENT_OUTPUT_BIT+VK_PIPELINE_STAGE_FLAG_BITS_MAX_ENUM+</text>
<polyline fill="none" stroke="#000000" points="120.7394,-570.5 1300.5342,-570.5 "/>
<text text-anchor="middle" x="710.6368" y="-553.9" font-family="Times,serif" font-size="14.00" fill="#000000">dstAccessMask=VK_ACCESS_COLOR_ATTACHMENT_WRITE_BIT+VK_ACCESS_DEPTH_STENCIL_ATTACHMENT_WRITE_BIT+VK_ACCESS_FLAG_BITS_MAX_ENUM+</text>
<polyline fill="none" stroke="#000000" points="120.7394,-545.7 1300.5342,-545.7 "/>
<text text-anchor="middle" x="710.6368" y="-529.1" font-family="Times,serif" font-size="14.00" fill="#000000">dependencyFlags=</text>
</g>
<!-- 0.4&#45;&gt;0.7 -->
<g id="edge7" class="edge">
<title>0.4-&gt;0.7</title>
<path fill="none" stroke="#000000" d="M931.2708,-681.7961C905.2326,-672.0279 874.0191,-660.3181 842.3281,-648.4291"/>
<polygon fill="#000000" stroke="#000000" points="843.526,-645.1404 832.9337,-644.9048 841.0672,-651.6944 843.526,-645.1404"/>
</g>
<!-- 0.5&#45;&gt;0.0 -->
<g id="edge3" class="edge">
<title>0.5-&gt;0.0</title>
<path fill="none" stroke="#000000" d="M1274.6402,-354.0032C1301.5832,-328.0381 1353.1462,-278.3467 1402.564,-230.7225"/>
<polygon fill="#000000" stroke="#000000" points="1405.0646,-233.1735 1409.8364,-223.7141 1400.2072,-228.1331 1405.0646,-233.1735"/>
</g>
<!-- 0.6&#45;&gt;0.1 -->
<g id="edge5" class="edge">
<title>0.6-&gt;0.1</title>
<path fill="none" stroke="#000000" d="M1729.0048,-564.579C1734.8172,-547.8109 1743.9634,-521.4246 1753.6389,-493.5114"/>
<polygon fill="#000000" stroke="#000000" points="1756.9682,-494.5932 1756.9364,-483.9984 1750.3543,-492.3006 1756.9682,-494.5932"/>
</g>
<!-- 0.7&#45;&gt;0.2 -->
<g id="edge8" class="edge">
<title>0.7-&gt;0.2</title>
<path fill="none" stroke="#000000" d="M570.4282,-520.8521C504.6999,-478.9055 421.6048,-425.8757 374.5641,-395.8552"/>
<polygon fill="#000000" stroke="#000000" points="376.2451,-392.776 365.9325,-390.3467 372.4793,-398.6768 376.2451,-392.776"/>
</g>
</g>
</svg>